<?xml version="1.0" encoding="UTF-8"?>
<svg viewBox="0 0 120 120" xmlns="http://www.w3.org/2000/svg" aria-hidden="true" focusable="false">
  <!-- Process step 2 of 4 (pottery): throw. Step number shown as a dot count, not a numeral. -->
  <path fill="none" stroke="currentColor" stroke-width="1.5" stroke-linecap="round" stroke-linejoin="round" d="M42 80 C40 55 45 35 60 32 C75 35 80 55 78 80"/>
  <path fill="none" stroke="currentColor" stroke-width="1.5" stroke-linecap="round" stroke-linejoin="round" d="M6 98 L16.5 98 A4 4 0 0 1 20.5 102 L20.5 114 A4 4 0 0 1 16.5 118 L6 118 A4 4 0 0 1 2 114 L2 102 A4 4 0 0 1 6 98 Z"/>
  <path fill="currentColor" d="M9 108 A2 2 0 1 0 13 108 A2 2 0 1 0 9 108 Z"/>
  <path fill="currentColor" d="M15.5 108 A2 2 0 1 0 19.5 108 A2 2 0 1 0 15.5 108 Z"/>
</svg>
