<?xml version="1.0" encoding="UTF-8"?>
<svg viewBox="0 0 24 24" xmlns="http://www.w3.org/2000/svg" aria-hidden="true" focusable="false">
  <!-- lock (core icon). none — global UI iconography, not a licensed motif. Use: general UI chrome. -->
  <path fill="none" stroke="currentColor" stroke-width="1.5" stroke-linecap="round" stroke-linejoin="round" d="M6.5 11 L17.5 11 A1.5 1.5 0 0 1 19 12.5 L19 19.5 A1.5 1.5 0 0 1 17.5 21 L6.5 21 A1.5 1.5 0 0 1 5 19.5 L5 12.5 A1.5 1.5 0 0 1 6.5 11 Z"/>
  <path fill="none" stroke="currentColor" stroke-width="1.5" stroke-linecap="round" stroke-linejoin="round" d="M8 11 L8 7 A4 4 0 0 1 16 7 L16 11"/>
  <path fill="none" stroke="currentColor" stroke-width="1.5" stroke-linecap="round" stroke-linejoin="round" d="M10.9 16 A1.1 1.1 0 1 0 13.1 16 A1.1 1.1 0 1 0 10.9 16 Z"/>
</svg>
