<?xml version="1.0" encoding="UTF-8"?>
<svg viewBox="0 0 12 12" xmlns="http://www.w3.org/2000/svg" aria-hidden="true" focusable="false">
  <!-- Handloom structure (plain weave), the workhorse pattern. Panel/page-background fill version of the over/under weave, the same construction as Batch 3 weft-texture-12.svg divider tile, delivered here as its own Batch 6 asset per the brief. Recommended opacity: 3-6%, any surface, the most broadly licensed pattern in the set. -->
  <path fill="currentColor" d="M2 0 L4 0 L4 8 L2 8 Z M2 10 L4 10 L4 12 L2 12 Z M8 0 L10 0 L10 2 L8 2 Z M8 4 L10 4 L10 12 L8 12 Z M0 2 L2 2 L2 4 L0 4 Z M4 2 L12 2 L12 4 L4 4 Z M0 8 L8 8 L8 10 L0 10 Z M10 8 L12 8 L12 10 L10 10 Z"/>
</svg>
